<svg width="19" height="20" viewBox="0 0 19 20" fill="none" xmlns="http://www.w3.org/2000/svg">
<path d="M2.555 2.24562C2.48471 2.16827 2.39903 2.10646 2.30346 2.06416C2.20788 2.02187 2.10452 2.00001 2 2C1.60218 2 1.22064 2.15804 0.93934 2.43934C0.658035 2.72064 0.5 3.10218 0.5 3.5V18.5C0.5 18.8978 0.658035 19.2794 0.93934 19.5607C1.22064 19.842 1.60218 20 2 20H17C17.1453 20 17.2874 19.9578 17.4092 19.8785C17.5309 19.7992 17.627 19.6863 17.6858 19.5535C17.7446 19.4206 17.7635 19.2735 17.7403 19.1301C17.7171 18.9867 17.6527 18.8531 17.555 18.7456L2.555 2.24562ZM4.39531 6.5H2V3.86375L4.39531 6.5ZM2 18.5V8H5.75937L15.305 18.5H2ZM18.5 3.5V15.6153C18.5 15.8142 18.421 16.005 18.2803 16.1456C18.1397 16.2863 17.9489 16.3653 17.75 16.3653C17.5511 16.3653 17.3603 16.2863 17.2197 16.1456C17.079 16.005 17 15.8142 17 15.6153V8H10.145C9.94609 8 9.75532 7.92098 9.61467 7.78033C9.47402 7.63968 9.395 7.44891 9.395 7.25C9.395 7.05109 9.47402 6.86032 9.61467 6.71967C9.75532 6.57902 9.94609 6.5 10.145 6.5H17V3.5H14.75V4.25C14.75 4.44891 14.671 4.63968 14.5303 4.78033C14.3897 4.92098 14.1989 5 14 5C13.8011 5 13.6103 4.92098 13.4697 4.78033C13.329 4.63968 13.25 4.44891 13.25 4.25V3.5H6.05469C5.85578 3.5 5.66501 3.42098 5.52436 3.28033C5.38371 3.13968 5.30469 2.94891 5.30469 2.75C5.30469 2.55109 5.38371 2.36032 5.52436 2.21967C5.66501 2.07902 5.85578 2 6.05469 2H13.25V1.25C13.25 1.05109 13.329 0.860322 13.4697 0.71967C13.6103 0.579018 13.8011 0.5 14 0.5C14.1989 0.5 14.3897 0.579018 14.5303 0.71967C14.671 0.860322 14.75 1.05109 14.75 1.25V2H17C17.3978 2 17.7794 2.15804 18.0607 2.43934C18.342 2.72064 18.5 3.10218 18.5 3.5Z" fill="white"/>
</svg>
