<svg width="23" height="17" viewBox="0 0 23 17" fill="none" xmlns="http://www.w3.org/2000/svg">
<path d="M12.5 11.7823C13.6757 11.0501 14.5809 9.95479 15.0787 8.66223C15.5765 7.36966 15.6398 5.95013 15.259 4.61839C14.8782 3.28666 14.074 2.11518 12.9681 1.2812C11.8622 0.447211 10.5148 -0.00390625 9.12964 -0.00390625C7.74453 -0.00390625 6.3971 0.447211 5.2912 1.2812C4.18531 2.11518 3.38112 3.28666 3.00031 4.61839C2.6195 5.95013 2.68278 7.36966 3.18058 8.66223C3.67838 9.95479 4.58361 11.0501 5.75933 11.7823C3.82339 12.4161 2.08151 13.6002 0.680889 15.267C0.55284 15.4193 0.490532 15.6162 0.507674 15.8145C0.524816 16.0127 0.620003 16.196 0.772296 16.3241C0.924588 16.4521 1.12151 16.5144 1.31974 16.4973C1.51797 16.4801 1.70128 16.3849 1.82933 16.2327C3.71089 13.9864 6.30401 12.7498 9.12495 12.7498C11.9459 12.7498 14.539 13.9864 16.4253 16.2327C16.5533 16.3849 16.7366 16.4801 16.9348 16.4973C17.1331 16.5144 17.33 16.4521 17.4823 16.3241C17.6346 16.196 17.7298 16.0127 17.7469 15.8145C17.7641 15.6162 17.7018 15.4193 17.5737 15.267C16.1731 13.6002 14.4312 12.4161 12.5 11.7823ZM4.24995 6.37484C4.24995 5.41066 4.53587 4.46813 5.07154 3.66644C5.60721 2.86475 6.36858 2.23991 7.25937 1.87093C8.15016 1.50195 9.13036 1.40541 10.076 1.59351C11.0217 1.78162 11.8903 2.24592 12.5721 2.9277C13.2539 3.60948 13.7182 4.47812 13.9063 5.42378C14.0944 6.36944 13.9978 7.34964 13.6289 8.24043C13.2599 9.13122 12.635 9.89259 11.8334 10.4283C11.0317 10.9639 10.0891 11.2498 9.12495 11.2498C7.83248 11.2484 6.59337 10.7343 5.67945 9.82034C4.76553 8.90643 4.25144 7.66732 4.24995 6.37484ZM22.7806 9.53047L19.7806 12.5305C19.7109 12.6002 19.6282 12.6555 19.5372 12.6933C19.4461 12.731 19.3485 12.7504 19.25 12.7504C19.1514 12.7504 19.0538 12.731 18.9627 12.6933C18.8717 12.6555 18.789 12.6002 18.7193 12.5305L17.2193 11.0305C17.0786 10.8897 16.9995 10.6989 16.9995 10.4998C16.9995 10.3008 17.0786 10.1099 17.2193 9.96922C17.3601 9.82849 17.5509 9.74943 17.75 9.74943C17.949 9.74943 18.1398 9.82849 18.2806 9.96922L19.25 10.9395L21.7193 8.46922C21.8601 8.32849 22.0509 8.24943 22.25 8.24943C22.449 8.24943 22.6398 8.32849 22.7806 8.46922C22.9213 8.60995 23.0004 8.80082 23.0004 8.99984C23.0004 9.19887 22.9213 9.38974 22.7806 9.53047Z" fill="#009966"/>
</svg>
