<svg width="56" height="56" viewBox="0 0 56 56" fill="none" xmlns="http://www.w3.org/2000/svg">
<g filter="url(#filter0_d_184_12323)">
<rect x="4" y="2" width="48" height="48" rx="24" fill="white" shape-rendering="crispEdges"/>
<path d="M35.5 19.25H32.9012L31.6234 17.3338C31.555 17.2311 31.4623 17.147 31.3535 17.0888C31.2448 17.0306 31.1233 17.0001 31 17H25C24.8767 17.0001 24.7552 17.0306 24.6465 17.0888C24.5377 17.147 24.445 17.2311 24.3766 17.3338L23.0978 19.25H20.5C19.9033 19.25 19.331 19.4871 18.909 19.909C18.4871 20.331 18.25 20.9033 18.25 21.5V32C18.25 32.5967 18.4871 33.169 18.909 33.591C19.331 34.0129 19.9033 34.25 20.5 34.25H35.5C36.0967 34.25 36.669 34.0129 37.091 33.591C37.5129 33.169 37.75 32.5967 37.75 32V21.5C37.75 20.9033 37.5129 20.331 37.091 19.909C36.669 19.4871 36.0967 19.25 35.5 19.25ZM36.25 32C36.25 32.1989 36.171 32.3897 36.0303 32.5303C35.8897 32.671 35.6989 32.75 35.5 32.75H20.5C20.3011 32.75 20.1103 32.671 19.9697 32.5303C19.829 32.3897 19.75 32.1989 19.75 32V21.5C19.75 21.3011 19.829 21.1103 19.9697 20.9697C20.1103 20.829 20.3011 20.75 20.5 20.75H23.5C23.6235 20.7501 23.7451 20.7197 23.854 20.6614C23.963 20.6032 24.0558 20.519 24.1244 20.4163L25.4012 18.5H30.5978L31.8756 20.4163C31.9442 20.519 32.037 20.6032 32.146 20.6614C32.2549 20.7197 32.3765 20.7501 32.5 20.75H35.5C35.6989 20.75 35.8897 20.829 36.0303 20.9697C36.171 21.1103 36.25 21.3011 36.25 21.5V32ZM28 22.25C27.1842 22.25 26.3866 22.4919 25.7083 22.9452C25.0299 23.3984 24.5012 24.0427 24.189 24.7964C23.8768 25.5502 23.7951 26.3796 23.9543 27.1797C24.1134 27.9799 24.5063 28.7149 25.0832 29.2918C25.6601 29.8687 26.3951 30.2616 27.1953 30.4207C27.9954 30.5799 28.8248 30.4982 29.5786 30.186C30.3323 29.8738 30.9766 29.3451 31.4298 28.6667C31.8831 27.9884 32.125 27.1908 32.125 26.375C32.1238 25.2814 31.6888 24.2329 30.9154 23.4596C30.1421 22.6862 29.0936 22.2512 28 22.25ZM28 29C27.4808 29 26.9733 28.846 26.5416 28.5576C26.1099 28.2692 25.7735 27.8592 25.5748 27.3795C25.3761 26.8999 25.3242 26.3721 25.4254 25.8629C25.5267 25.3537 25.7767 24.886 26.1438 24.5188C26.511 24.1517 26.9787 23.9017 27.4879 23.8004C27.9971 23.6992 28.5249 23.7511 29.0045 23.9498C29.4842 24.1485 29.8942 24.4849 30.1826 24.9166C30.471 25.3483 30.625 25.8558 30.625 26.375C30.625 27.0712 30.3484 27.7389 29.8562 28.2312C29.3639 28.7234 28.6962 29 28 29Z" fill="#404040"/>
</g>
<defs>
<filter id="filter0_d_184_12323" x="0" y="0" width="56" height="56" filterUnits="userSpaceOnUse" color-interpolation-filters="sRGB">
<feFlood flood-opacity="0" result="BackgroundImageFix"/>
<feColorMatrix in="SourceAlpha" type="matrix" values="0 0 0 0 0 0 0 0 0 0 0 0 0 0 0 0 0 0 127 0" result="hardAlpha"/>
<feOffset dy="2"/>
<feGaussianBlur stdDeviation="2"/>
<feComposite in2="hardAlpha" operator="out"/>
<feColorMatrix type="matrix" values="0 0 0 0 0 0 0 0 0 0 0 0 0 0 0 0 0 0 0.25 0"/>
<feBlend mode="normal" in2="BackgroundImageFix" result="effect1_dropShadow_184_12323"/>
<feBlend mode="normal" in="SourceGraphic" in2="effect1_dropShadow_184_12323" result="shape"/>
</filter>
</defs>
</svg>
