<svg width="23" height="23" viewBox="0 0 23 23" fill="none" xmlns="http://www.w3.org/2000/svg">
<circle cx="11.6667" cy="11.667" r="11" fill="url(#paint0_linear_2012_493)"/>
<g clip-path="url(#clip0_2012_493)">
<path d="M14.0729 10.8646V8.85937C14.0729 8.2212 13.8194 7.60916 13.3681 7.1579C12.9169 6.70664 12.3048 6.45313 11.6667 6.45312C11.0285 6.45313 10.4164 6.70664 9.96518 7.1579C9.51392 7.60916 9.26041 8.2212 9.26041 8.85937V10.8646M8.85937 16.8802H14.474C14.793 16.8802 15.0991 16.7535 15.3247 16.5278C15.5503 16.3022 15.6771 15.9962 15.6771 15.6771V12.0677C15.6771 11.7486 15.5503 11.4426 15.3247 11.217C15.0991 10.9913 14.793 10.8646 14.474 10.8646H8.85937C8.54028 10.8646 8.23426 10.9913 8.00863 11.217C7.783 11.4426 7.65624 11.7486 7.65624 12.0677V15.6771C7.65624 15.9962 7.783 16.3022 8.00863 16.5278C8.23426 16.7535 8.54028 16.8802 8.85937 16.8802Z" stroke="white" stroke-linecap="round" stroke-linejoin="round"/>
</g>
<defs>
<linearGradient id="paint0_linear_2012_493" x1="11.6667" y1="0.666992" x2="11.6667" y2="22.667" gradientUnits="userSpaceOnUse">
<stop stop-color="#00BC7D"/>
<stop offset="1" stop-color="#009966"/>
</linearGradient>
<clipPath id="clip0_2012_493">
<rect width="12.8333" height="12.8333" fill="white" transform="translate(5.24999 5.25)"/>
</clipPath>
</defs>
</svg>
