<svg width="23" height="25" viewBox="0 0 23 25" fill="none" xmlns="http://www.w3.org/2000/svg">
<path d="M14.625 7.625C15.3172 7.625 15.9939 7.41973 16.5695 7.03514C17.1451 6.65056 17.5937 6.10394 17.8586 5.46439C18.1235 4.82485 18.1928 4.12112 18.0577 3.44219C17.9227 2.76325 17.5894 2.13961 17.0999 1.65013C16.6104 1.16064 15.9867 0.827301 15.3078 0.692253C14.6289 0.557205 13.9251 0.626516 13.2856 0.891423C12.6461 1.15633 12.0994 1.60493 11.7149 2.18051C11.3303 2.75608 11.125 3.43277 11.125 4.125C11.125 5.05326 11.4937 5.9435 12.1501 6.59988C12.8065 7.25625 13.6967 7.625 14.625 7.625ZM14.625 2.375C14.9711 2.375 15.3095 2.47764 15.5972 2.66993C15.885 2.86222 16.1093 3.13553 16.2418 3.45531C16.3742 3.77508 16.4089 4.12694 16.3414 4.46641C16.2739 4.80588 16.1072 5.1177 15.8624 5.36244C15.6177 5.60718 15.3059 5.77385 14.9664 5.84138C14.6269 5.9089 14.2751 5.87424 13.9553 5.74179C13.6355 5.60934 13.3622 5.38504 13.1699 5.09725C12.9776 4.80946 12.875 4.47112 12.875 4.125C12.875 3.66087 13.0594 3.21575 13.3876 2.88756C13.7158 2.55938 14.1609 2.375 14.625 2.375ZM21.987 13.3869C21.9203 13.4175 21.1678 13.7456 19.8356 13.7456C18.3208 13.7456 16.0567 13.3213 13.1977 11.5581C12.7625 12.7935 12.1975 13.9792 11.5122 15.0953C12.7431 15.4743 13.901 16.0589 14.9367 16.8245C17.0225 18.4148 18.125 20.6789 18.125 23.375C18.125 23.6071 18.0328 23.8296 17.8687 23.9937C17.7046 24.1578 17.4821 24.25 17.25 24.25C17.0179 24.25 16.7954 24.1578 16.6313 23.9937C16.4672 23.8296 16.375 23.6071 16.375 23.375C16.375 18.8141 12.5808 17.1723 10.4534 16.6102C10.3933 16.6867 10.3309 16.7644 10.2686 16.8398C8.12047 19.443 5.42875 20.797 2.43406 20.797C2.09296 20.7986 1.75201 20.7829 1.4125 20.75C1.18043 20.7268 0.967094 20.6124 0.819409 20.4318C0.671724 20.2513 0.601793 20.0196 0.624999 19.7875C0.648205 19.5554 0.762649 19.3421 0.943152 19.1944C1.12366 19.0467 1.35543 18.9768 1.5875 19C4.4225 19.2822 6.88891 18.1808 8.91562 15.7188C10.2817 14.0628 11.2125 12.0427 11.6773 10.5781C7.42047 8.10078 4.70141 10.2095 4.67187 10.2325C4.58274 10.3086 4.47923 10.366 4.36747 10.4014C4.25572 10.4367 4.13801 10.4492 4.02132 10.4382C3.90464 10.4272 3.79135 10.3928 3.6882 10.3372C3.58505 10.2815 3.49413 10.2057 3.42084 10.1142C3.34755 10.0228 3.29339 9.9175 3.26156 9.8047C3.22973 9.6919 3.22089 9.57385 3.23556 9.45757C3.25023 9.34128 3.28811 9.22913 3.34696 9.12777C3.4058 9.02641 3.48441 8.9379 3.57812 8.8675C3.74219 8.73625 7.64906 5.69563 13.3683 9.5861C18.3416 12.9669 21.2356 11.8075 21.263 11.7944C21.3678 11.7449 21.4814 11.7167 21.5972 11.7115C21.713 11.7063 21.8287 11.7241 21.9376 11.764C22.0465 11.8039 22.1463 11.865 22.2313 11.9438C22.3164 12.0226 22.3849 12.1175 22.4329 12.223C22.481 12.3285 22.5076 12.4425 22.5112 12.5584C22.5148 12.6742 22.4953 12.7897 22.454 12.898C22.4126 13.0062 22.3501 13.1052 22.2701 13.1892C22.1901 13.2731 22.0943 13.3403 21.9881 13.3869H21.987Z" fill="white"/>
</svg>
